<?xml version="1.0" encoding="UTF-8"?>
<svg xmlns="http://www.w3.org/2000/svg" xmlns:xlink="http://www.w3.org/1999/xlink" width="150px" height="150px" viewBox="0 0 150 150" version="1.1">
  <g id="surface1">
    <path style="fill-rule:nonzero;fill:rgb(0%,59.607843%,26.666667%);fill-opacity:1;stroke-width:1.3881;stroke-linecap:butt;stroke-linejoin:miter;stroke:rgb(0%,59.607843%,26.666667%);stroke-opacity:1;stroke-miterlimit:4;" d="M 535.607813 241.307917 C 536.202083 242.105938 536.202083 241.002292 535.607813 241.307917 C 629.706354 242.105938 624.6975 324.692604 617.498333 346.901354 C 607.599479 374.594375 581.5025 400.097083 529.104792 399.808438 L 105.593438 399.808438 C 61.702292 398.602917 31.496354 374.203854 24.602812 346.001458 C 13.294688 314.403229 25.095208 244.398125 101.891979 241.307917 Z M 535.607813 241.307917 " transform="matrix(0.230061,0,0,0.230061,0,0)"></path>
    <path style=" stroke:none;fill-rule:nonzero;fill:rgb(100%,100%,100%);fill-opacity:1;" d="M 65.453125 67.246094 C 67.613281 71.15625 66.164062 76.171875 63.449219 79.371094 C 60.367188 83.28125 54.753906 84.042969 50.476562 83.027344 C 47.644531 82.15625 46.289062 80.199219 45.78125 78.015625 C 45.160156 73.621094 46.792969 69.410156 49.921875 66.328125 C 52.707031 63.65625 56.871094 63.128906 60.691406 63.84375 C 62.484375 64.347656 64.371094 65.429688 65.453125 67.246094 "></path>
    <path style=" stroke:none;fill-rule:nonzero;fill:rgb(100%,100%,100%);fill-opacity:1;" d="M 33.40625 82.15625 C 31.933594 82.820312 30.78125 83.007812 28.136719 83.027344 L 17.4375 83.027344 L 21.328125 64.394531 L 32.761719 64.394531 C 37.179688 64.394531 38.375 67.820312 36.972656 70.582031 C 36.257812 71.984375 35.0625 72.675781 34.070312 73.089844 C 34.050781 73.113281 34.09375 73.066406 34.070312 73.066406 C 34.050781 73.160156 34.117188 73.113281 34.070312 73.066406 C 34.050781 73.089844 34.050781 73.113281 34.070312 73.066406 C 38.421875 74.863281 37.15625 80.453125 33.40625 82.15625 "></path>
    <path style=" stroke:none;fill-rule:nonzero;fill:rgb(100%,100%,100%);fill-opacity:1;" d="M 42.421875 83.050781 L 37.199219 83.050781 L 41.273438 64.507812 L 46.402344 64.507812 Z M 42.421875 83.050781 "></path>
    <path style=" stroke:none;fill-rule:nonzero;fill:rgb(100%,100%,100%);fill-opacity:1;" d="M 88.113281 64.394531 C 97.40625 64.257812 94.808594 73.160156 89.632812 74.585938 C 89.632812 74.632812 89.632812 74.609375 89.632812 74.585938 C 92.691406 75.527344 92.460938 79.832031 92.230469 83.074219 L 86.203125 83.074219 C 86.25 82.085938 89.058594 75.4375 84.777344 75.621094 L 80.589844 75.621094 C 80.613281 75.644531 79.554688 80.589844 79.003906 83.074219 L 73.917969 83.074219 C 73.941406 83.097656 75.4375 75.644531 75.460938 75.621094 L 69.984375 75.621094 L 70.789062 71.894531 L 76.242188 71.894531 L 77.96875 64.417969 L 88.113281 64.417969 "></path>
    <path style=" stroke:none;fill-rule:nonzero;fill:rgb(0%,59.607843%,26.666667%);fill-opacity:1;" d="M 30.113281 67.867188 C 33.703125 67.867188 32.164062 71.503906 30.253906 71.570312 C 28.804688 71.570312 24.824219 71.570312 24.847656 71.59375 L 25.582031 67.84375 C 25.605469 67.890625 30.113281 67.867188 30.113281 67.867188 "></path>
    <path style=" stroke:none;fill-rule:nonzero;fill:rgb(0%,59.607843%,26.666667%);fill-opacity:1;" d="M 60.023438 68.8125 C 61.910156 70.628906 60.667969 74.472656 59.402344 76.5625 C 58.019531 78.703125 56.527344 79.164062 55.859375 79.324219 C 53.765625 79.714844 52.429688 79.027344 51.855469 78.015625 C 50.84375 76.402344 51.511719 71.59375 53.648438 69.433594 C 55.121094 67.636719 58.296875 67.179688 60.023438 68.8125 "></path>
    <path style=" stroke:none;fill-rule:nonzero;fill:rgb(0%,59.607843%,26.666667%);fill-opacity:1;" d="M 86.363281 67.9375 C 89.863281 68.144531 89.148438 71.777344 86.617188 71.894531 C 86.664062 71.964844 81.394531 71.871094 81.394531 71.917969 L 82.292969 67.9375 C 82.292969 67.9375 86.363281 67.9375 86.363281 67.9375 "></path>
    <path style=" stroke:none;fill-rule:nonzero;fill:rgb(0%,59.607843%,26.666667%);fill-opacity:1;" d="M 28.644531 75 C 33.359375 74.863281 32.828125 79.601562 29.035156 79.324219 C 29.035156 79.324219 23.167969 79.324219 23.167969 79.324219 C 23.191406 79.300781 24.132812 75 24.132812 75 Z M 28.644531 75 "></path>
    <path style=" stroke:none;fill-rule:nonzero;fill:rgb(100%,100%,100%);fill-opacity:1;" d="M 111.074219 83.007812 L 115.03125 64.484375 L 124.761719 64.484375 C 129.457031 64.808594 131.203125 67.613281 131.777344 70.144531 C 132.5625 74.378906 131.824219 82.820312 121.148438 83.007812 C 121.148438 82.984375 121.105469 83.007812 121.148438 83.007812 Z M 111.074219 83.007812 "></path>
    <path style=" stroke:none;fill-rule:nonzero;fill:rgb(100%,100%,100%);fill-opacity:1;" d="M 112.015625 83.007812 L 106.863281 83.007812 C 106.863281 83.007812 106.148438 79.878906 106.105469 79.832031 L 97.730469 79.832031 C 97.753906 79.878906 95.796875 83.007812 95.796875 83.050781 L 90.941406 83.050781 L 102.125 64.441406 C 102.125 64.441406 108.015625 64.441406 108.035156 64.441406 C 108.035156 64.441406 112.015625 83.007812 112.015625 83.007812 "></path>
    <path style=" stroke:none;fill-rule:nonzero;fill:rgb(0%,59.607843%,26.666667%);fill-opacity:1;" d="M 122.761719 67.914062 C 128.375 67.914062 128.234375 79.484375 119.976562 79.601562 C 119.976562 79.601562 116.941406 79.601562 116.941406 79.601562 L 119.425781 67.9375 C 119.425781 67.914062 122.761719 67.914062 122.761719 67.914062 "></path>
    <path style=" stroke:none;fill-rule:nonzero;fill:rgb(0%,59.607843%,26.666667%);fill-opacity:1;" d="M 99.960938 76.171875 L 103.917969 69.410156 L 105.300781 76.171875 Z M 99.960938 76.171875 "></path>
  </g>
</svg>
