<?xml version="1.0" encoding="UTF-8"?>
<svg xmlns="http://www.w3.org/2000/svg" xmlns:xlink="http://www.w3.org/1999/xlink" width="300px" height="110px" viewBox="0 0 299 110" version="1.1">
  <g id="surface1">
    <path style=" stroke:none;fill-rule:nonzero;fill:rgb(35.294118%,34.117647%,34.509804%);fill-opacity:1;" d="M 166.257812 55.347656 C 166.257812 55.074219 166.382812 54.925781 166.675781 54.925781 L 174.378906 54.925781 C 174.632812 54.925781 174.777344 55.074219 174.777344 55.324219 L 174.777344 56.628906 C 174.777344 56.878906 174.671875 57.003906 174.359375 57.003906 L 168.644531 57.003906 L 168.644531 60.617188 L 173.710938 60.617188 C 173.980469 60.617188 174.128906 60.742188 174.128906 60.992188 L 174.128906 62.292969 C 174.128906 62.546875 174.023438 62.671875 173.710938 62.671875 L 168.644531 62.671875 L 168.644531 66.808594 L 174.507812 66.808594 C 174.757812 66.808594 174.882812 66.933594 174.882812 67.207031 L 174.882812 68.488281 C 174.882812 68.757812 174.777344 68.863281 174.484375 68.863281 L 166.675781 68.863281 C 166.382812 68.863281 166.257812 68.738281 166.257812 68.488281 L 166.257812 55.347656 "></path>
    <path style=" stroke:none;fill-rule:nonzero;fill:rgb(35.294118%,34.117647%,34.509804%);fill-opacity:1;" d="M 185.433594 68.863281 L 183.945312 68.863281 C 183.632812 68.863281 183.550781 68.71875 183.550781 68.464844 L 183.550781 67.816406 L 183.507812 67.792969 C 182.691406 68.359375 181.269531 69.054688 179.992188 69.054688 C 177.164062 69.054688 176.894531 67.375 176.894531 65.167969 L 176.894531 59 C 176.894531 58.746094 176.996094 58.578125 177.289062 58.578125 L 178.820312 58.578125 C 179.089844 58.578125 179.195312 58.726562 179.195312 59 L 179.195312 64.898438 C 179.195312 66.15625 179.445312 66.953125 180.722656 66.953125 C 181.625 66.953125 183.003906 66.28125 183.550781 66.007812 L 183.550781 59 C 183.550781 58.746094 183.632812 58.578125 183.945312 58.578125 L 185.433594 58.578125 C 185.726562 58.578125 185.832031 58.726562 185.832031 59 L 185.832031 68.464844 C 185.832031 68.738281 185.726562 68.863281 185.433594 68.863281 "></path>
    <path style=" stroke:none;fill-rule:nonzero;fill:rgb(35.294118%,34.117647%,34.509804%);fill-opacity:1;" d="M 190.75 68.464844 C 190.75 68.71875 190.648438 68.863281 190.355469 68.863281 L 188.847656 68.863281 C 188.554688 68.863281 188.449219 68.738281 188.449219 68.464844 L 188.449219 59 C 188.449219 58.726562 188.554688 58.578125 188.847656 58.578125 L 190.332031 58.578125 C 190.648438 58.578125 190.75 58.746094 190.75 59 L 190.75 59.921875 L 190.792969 59.964844 C 191.421875 59.375 192.90625 58.664062 193.890625 58.472656 C 194.164062 58.410156 194.351562 58.472656 194.394531 58.832031 L 194.539062 60.238281 C 194.5625 60.53125 194.582031 60.65625 194.140625 60.742188 C 192.96875 60.972656 191.484375 61.390625 190.75 61.707031 L 190.75 68.464844 "></path>
    <path style=" stroke:none;fill-rule:nonzero;fill:rgb(35.294118%,34.117647%,34.509804%);fill-opacity:1;" d="M 199.984375 60.382812 C 198.203125 60.382812 197.808594 61.519531 197.808594 63.699219 C 197.808594 65.925781 198.203125 67.015625 199.964844 67.015625 C 201.867188 67.015625 202.246094 65.945312 202.246094 63.699219 C 202.246094 61.476562 201.890625 60.382812 199.984375 60.382812 Z M 199.964844 69.03125 C 195.753906 69.03125 195.484375 65.945312 195.484375 63.554688 C 195.484375 61.582031 195.921875 58.371094 199.964844 58.371094 C 204.023438 58.371094 204.589844 61.078125 204.589844 63.554688 C 204.589844 65.945312 204.296875 69.03125 199.964844 69.03125 "></path>
    <path style=" stroke:none;fill-rule:nonzero;fill:rgb(35.294118%,34.117647%,34.509804%);fill-opacity:1;" d="M 211.6875 60.511719 C 210.828125 60.511719 209.507812 61.121094 208.882812 61.453125 L 208.882812 66.703125 C 209.824219 66.976562 210.578125 67.058594 211.289062 67.058594 C 212.796875 67.058594 213.320312 66.28125 213.320312 63.636719 C 213.320312 60.972656 212.796875 60.511719 211.6875 60.511719 Z M 211.519531 69.054688 C 210.828125 69.054688 209.863281 68.925781 208.902344 68.589844 L 208.882812 68.613281 L 208.882812 72.308594 C 208.882812 72.539062 208.820312 72.726562 208.484375 72.726562 L 206.996094 72.726562 C 206.664062 72.726562 206.601562 72.578125 206.601562 72.308594 L 206.601562 59 C 206.601562 58.726562 206.703125 58.578125 206.996094 58.578125 L 208.484375 58.578125 C 208.777344 58.578125 208.859375 58.746094 208.859375 59 L 208.859375 59.628906 L 208.921875 59.671875 C 209.675781 59.144531 211.015625 58.410156 212.230469 58.410156 C 214.972656 58.410156 215.683594 60.488281 215.683594 63.660156 C 215.683594 67.078125 214.824219 69.054688 211.519531 69.054688 "></path>
    <path style=" stroke:none;fill-rule:nonzero;fill:rgb(35.294118%,34.117647%,34.509804%);fill-opacity:1;" d="M 219.726562 62.777344 L 223.871094 62.777344 C 223.871094 61.496094 223.535156 60.257812 221.796875 60.257812 C 220.25 60.257812 219.832031 61.203125 219.726562 62.777344 Z M 219.703125 64.351562 C 219.765625 66.472656 220.519531 67.058594 222.238281 67.058594 C 222.992188 67.058594 224.164062 66.914062 224.957031 66.828125 C 225.335938 66.785156 225.460938 66.785156 225.523438 67.183594 L 225.648438 67.878906 C 225.710938 68.191406 225.671875 68.359375 225.292969 68.527344 C 224.476562 68.84375 222.949219 69.054688 221.921875 69.054688 C 217.925781 69.054688 217.339844 66.492188 217.339844 63.765625 C 217.339844 61.726562 217.714844 58.371094 221.796875 58.371094 C 225.542969 58.371094 226.214844 60.804688 226.277344 63.070312 C 226.296875 63.828125 226.089844 64.351562 225.25 64.351562 L 219.703125 64.351562 "></path>
    <path style=" stroke:none;fill-rule:nonzero;fill:rgb(35.294118%,34.117647%,34.509804%);fill-opacity:1;" d="M 234.527344 64.183594 L 231.972656 64.183594 C 230.925781 64.183594 230.257812 64.5625 230.257812 65.945312 C 230.257812 66.871094 230.570312 67.164062 231.554688 67.164062 C 232.453125 67.164062 233.730469 66.640625 234.527344 66.175781 Z M 234.652344 67.667969 C 233.605469 68.464844 232.203125 69.03125 230.800781 69.03125 C 228.582031 69.03125 227.933594 67.816406 227.933594 66.050781 C 227.910156 63.597656 229.230469 62.546875 231.867188 62.546875 L 234.546875 62.546875 L 234.546875 62 C 234.546875 60.742188 234.085938 60.300781 232.371094 60.300781 C 231.679688 60.300781 230.359375 60.40625 229.523438 60.488281 C 229.105469 60.550781 229 60.53125 228.9375 60.238281 L 228.75 59.460938 C 228.707031 59.1875 228.769531 59.019531 229.230469 58.832031 C 230.128906 58.515625 231.785156 58.371094 232.769531 58.371094 C 236.390625 58.371094 236.828125 59.859375 236.828125 62.210938 L 236.828125 66.261719 C 236.828125 67.121094 236.933594 67.144531 237.582031 67.226562 C 237.894531 67.246094 237.980469 67.3125 237.980469 67.542969 L 237.980469 68.421875 C 237.980469 68.652344 237.832031 68.800781 237.476562 68.863281 C 237.140625 68.925781 236.808594 68.96875 236.492188 68.96875 C 235.507812 68.96875 234.902344 68.675781 234.695312 67.6875 L 234.652344 67.667969 "></path>
    <path style=" stroke:none;fill-rule:nonzero;fill:rgb(35.294118%,34.117647%,34.509804%);fill-opacity:1;" d="M 247.945312 68.863281 L 246.4375 68.863281 C 246.164062 68.863281 246.039062 68.738281 246.039062 68.464844 L 246.0625 62.566406 C 246.0625 61.328125 245.769531 60.511719 244.554688 60.511719 C 243.714844 60.511719 242.25 61.183594 241.6875 61.453125 L 241.6875 68.464844 C 241.6875 68.71875 241.582031 68.863281 241.289062 68.863281 L 239.800781 68.863281 C 239.507812 68.863281 239.402344 68.738281 239.402344 68.464844 L 239.402344 59 C 239.402344 58.726562 239.507812 58.578125 239.800781 58.578125 L 241.289062 58.578125 C 241.582031 58.578125 241.6875 58.726562 241.6875 59 L 241.6875 59.628906 C 241.707031 59.628906 241.726562 59.648438 241.75 59.648438 C 242.523438 59.105469 243.988281 58.390625 245.265625 58.390625 C 248.089844 58.390625 248.34375 60.257812 248.34375 62.378906 L 248.34375 68.464844 C 248.34375 68.71875 248.257812 68.863281 247.945312 68.863281 "></path>
    <path style=" stroke:none;fill-rule:nonzero;fill:rgb(35.294118%,34.117647%,34.509804%);fill-opacity:1;" d="M 171.875 76.878906 C 172.902344 76.878906 174.597656 77.023438 175.707031 77.488281 C 176.042969 77.632812 176.167969 77.800781 176.105469 78.136719 L 175.917969 78.996094 C 175.851562 79.25 175.75 79.355469 175.371094 79.3125 C 174.347656 79.1875 173.089844 79.039062 172.003906 79.039062 C 169.15625 79.039062 168.734375 81.347656 168.734375 84.078125 C 168.734375 86.828125 169.257812 88.988281 172.003906 88.988281 C 173.214844 88.988281 174.242188 88.863281 175.371094 88.714844 C 175.769531 88.675781 175.851562 88.78125 175.9375 89.050781 L 176.105469 89.851562 C 176.1875 90.183594 176.082031 90.375 175.75 90.519531 C 174.722656 90.960938 172.902344 91.152344 171.875 91.152344 C 167.207031 91.152344 166.222656 87.6875 166.222656 84.121094 C 166.222656 80.53125 167.105469 76.878906 171.875 76.878906 "></path>
    <path style=" stroke:none;fill-rule:nonzero;fill:rgb(35.294118%,34.117647%,34.509804%);fill-opacity:1;" d="M 182.113281 82.484375 C 180.335938 82.484375 179.9375 83.617188 179.9375 85.800781 C 179.9375 88.023438 180.335938 89.113281 182.09375 89.113281 C 183.996094 89.113281 184.375 88.042969 184.375 85.800781 C 184.375 83.574219 184.019531 82.484375 182.113281 82.484375 Z M 182.09375 91.128906 C 177.886719 91.128906 177.613281 88.042969 177.613281 85.652344 C 177.613281 83.679688 178.054688 80.46875 182.09375 80.46875 C 186.152344 80.46875 186.71875 83.175781 186.71875 85.652344 C 186.71875 88.042969 186.425781 91.128906 182.09375 91.128906 "></path>
    <path style=" stroke:none;fill-rule:nonzero;fill:rgb(35.294118%,34.117647%,34.509804%);fill-opacity:1;" d="M 203.382812 90.960938 L 201.875 90.960938 C 201.582031 90.960938 201.476562 90.835938 201.476562 90.5625 L 201.476562 84.601562 C 201.476562 83.046875 201.101562 82.609375 200.054688 82.609375 C 199.277344 82.609375 198.023438 83.21875 197.375 83.550781 C 197.375 83.761719 197.394531 84.140625 197.394531 84.625 L 197.394531 90.5625 C 197.394531 90.816406 197.3125 90.960938 196.996094 90.960938 L 195.46875 90.960938 C 195.199219 90.960938 195.113281 90.835938 195.113281 90.5625 L 195.113281 84.496094 C 195.113281 83.21875 194.777344 82.609375 193.730469 82.609375 C 193 82.609375 191.828125 83.132812 191.03125 83.550781 L 191.03125 90.5625 C 191.03125 90.816406 190.929688 90.960938 190.632812 90.960938 L 189.128906 90.960938 C 188.855469 90.960938 188.75 90.835938 188.75 90.5625 L 188.75 81.097656 C 188.75 80.824219 188.855469 80.675781 189.128906 80.675781 L 190.613281 80.675781 C 190.929688 80.675781 191.03125 80.84375 191.03125 81.097656 L 191.03125 81.707031 L 191.054688 81.726562 C 191.871094 81.160156 193.019531 80.53125 194.171875 80.488281 C 195.386719 80.488281 196.390625 80.738281 197.039062 81.957031 C 198.085938 81.179688 199.382812 80.488281 200.722656 80.488281 C 203.488281 80.488281 203.757812 82.292969 203.757812 84.390625 L 203.757812 90.5625 C 203.757812 90.816406 203.675781 90.960938 203.382812 90.960938 "></path>
    <path style=" stroke:none;fill-rule:nonzero;fill:rgb(35.294118%,34.117647%,34.509804%);fill-opacity:1;" d="M 220.632812 90.960938 L 219.125 90.960938 C 218.832031 90.960938 218.726562 90.835938 218.726562 90.5625 L 218.726562 84.601562 C 218.726562 83.046875 218.351562 82.609375 217.304688 82.609375 C 216.53125 82.609375 215.273438 83.21875 214.625 83.550781 C 214.625 83.761719 214.644531 84.140625 214.644531 84.625 L 214.644531 90.5625 C 214.644531 90.816406 214.5625 90.960938 214.246094 90.960938 L 212.71875 90.960938 C 212.449219 90.960938 212.363281 90.835938 212.363281 90.5625 L 212.363281 84.496094 C 212.363281 83.21875 212.027344 82.609375 210.984375 82.609375 C 210.25 82.609375 209.078125 83.132812 208.28125 83.550781 L 208.28125 90.5625 C 208.28125 90.816406 208.179688 90.960938 207.886719 90.960938 L 206.378906 90.960938 C 206.105469 90.960938 206 90.835938 206 90.5625 L 206 81.097656 C 206 80.824219 206.105469 80.675781 206.378906 80.675781 L 207.863281 80.675781 C 208.179688 80.675781 208.28125 80.84375 208.28125 81.097656 L 208.28125 81.707031 L 208.304688 81.726562 C 209.121094 81.160156 210.269531 80.53125 211.421875 80.488281 C 212.636719 80.488281 213.640625 80.738281 214.289062 81.957031 C 215.335938 81.179688 216.632812 80.488281 217.972656 80.488281 C 220.738281 80.488281 221.007812 82.292969 221.007812 84.390625 L 221.007812 90.5625 C 221.007812 90.816406 220.925781 90.960938 220.632812 90.960938 "></path>
    <path style=" stroke:none;fill-rule:nonzero;fill:rgb(35.294118%,34.117647%,34.509804%);fill-opacity:1;" d="M 225.847656 90.5625 C 225.847656 90.792969 225.761719 90.960938 225.46875 90.960938 L 223.984375 90.960938 C 223.691406 90.960938 223.566406 90.835938 223.566406 90.5625 L 223.566406 81.074219 C 223.566406 80.78125 223.691406 80.675781 223.984375 80.675781 L 225.46875 80.675781 C 225.761719 80.675781 225.847656 80.84375 225.847656 81.074219 Z M 224.738281 79.167969 C 223.648438 79.167969 223.503906 78.558594 223.503906 77.949219 C 223.503906 77.277344 223.734375 76.75 224.738281 76.75 C 225.761719 76.75 225.972656 77.234375 225.972656 77.949219 C 225.972656 78.597656 225.785156 79.167969 224.738281 79.167969 "></path>
    <path style=" stroke:none;fill-rule:nonzero;fill:rgb(35.294118%,34.117647%,34.509804%);fill-opacity:1;" d="M 231.875 91.128906 C 230.828125 91.128906 229.425781 90.984375 228.632812 90.667969 C 228.210938 90.5 228.128906 90.3125 228.191406 89.976562 L 228.339844 89.285156 C 228.402344 88.945312 228.546875 88.925781 228.882812 88.96875 C 229.804688 89.113281 231.144531 89.21875 231.855469 89.21875 C 233.195312 89.21875 233.738281 88.863281 233.738281 88.023438 C 233.738281 87.058594 233.382812 86.847656 232.0625 86.660156 C 230.011719 86.367188 228.210938 85.925781 228.210938 83.636719 C 228.210938 81.558594 229.804688 80.46875 232.148438 80.46875 C 233.003906 80.46875 234.449219 80.59375 235.328125 80.929688 C 235.683594 81.074219 235.832031 81.242188 235.769531 81.558594 L 235.601562 82.316406 C 235.539062 82.609375 235.414062 82.648438 235.035156 82.609375 C 234.136719 82.503906 232.964844 82.378906 232.191406 82.378906 C 230.851562 82.378906 230.535156 82.753906 230.535156 83.550781 C 230.535156 84.371094 231.039062 84.476562 232.316406 84.6875 C 234.304688 84.980469 236.105469 85.378906 236.105469 87.875 C 236.105469 90.332031 234.03125 91.128906 231.875 91.128906 "></path>
    <path style=" stroke:none;fill-rule:nonzero;fill:rgb(35.294118%,34.117647%,34.509804%);fill-opacity:1;" d="M 241.484375 91.128906 C 240.4375 91.128906 239.035156 90.984375 238.242188 90.667969 C 237.820312 90.5 237.738281 90.3125 237.800781 89.976562 L 237.949219 89.285156 C 238.011719 88.945312 238.15625 88.925781 238.492188 88.96875 C 239.414062 89.113281 240.753906 89.21875 241.464844 89.21875 C 242.804688 89.21875 243.347656 88.863281 243.347656 88.023438 C 243.347656 87.058594 242.992188 86.847656 241.675781 86.660156 C 239.621094 86.367188 237.820312 85.925781 237.820312 83.636719 C 237.820312 81.558594 239.414062 80.46875 241.757812 80.46875 C 242.617188 80.46875 244.058594 80.59375 244.9375 80.929688 C 245.296875 81.074219 245.441406 81.242188 245.378906 81.558594 L 245.210938 82.316406 C 245.148438 82.609375 245.023438 82.648438 244.644531 82.609375 C 243.746094 82.503906 242.574219 82.378906 241.800781 82.378906 C 240.460938 82.378906 240.144531 82.753906 240.144531 83.550781 C 240.144531 84.371094 240.648438 84.476562 241.925781 84.6875 C 243.914062 84.980469 245.714844 85.378906 245.714844 87.875 C 245.714844 90.332031 243.640625 91.128906 241.484375 91.128906 "></path>
    <path style=" stroke:none;fill-rule:nonzero;fill:rgb(35.294118%,34.117647%,34.509804%);fill-opacity:1;" d="M 250.234375 90.5625 C 250.234375 90.792969 250.152344 90.960938 249.859375 90.960938 L 248.375 90.960938 C 248.082031 90.960938 247.953125 90.835938 247.953125 90.5625 L 247.953125 81.074219 C 247.953125 80.78125 248.082031 80.675781 248.375 80.675781 L 249.859375 80.675781 C 250.152344 80.675781 250.234375 80.84375 250.234375 81.074219 Z M 249.125 79.167969 C 248.039062 79.167969 247.890625 78.558594 247.890625 77.949219 C 247.890625 77.277344 248.121094 76.75 249.125 76.75 C 250.152344 76.75 250.363281 77.234375 250.363281 77.949219 C 250.363281 78.597656 250.171875 79.167969 249.125 79.167969 "></path>
    <path style=" stroke:none;fill-rule:nonzero;fill:rgb(35.294118%,34.117647%,34.509804%);fill-opacity:1;" d="M 257.125 82.484375 C 255.34375 82.484375 254.945312 83.617188 254.945312 85.800781 C 254.945312 88.023438 255.34375 89.113281 257.101562 89.113281 C 259.007812 89.113281 259.382812 88.042969 259.382812 85.800781 C 259.382812 83.574219 259.027344 82.484375 257.125 82.484375 Z M 257.101562 91.128906 C 252.894531 91.128906 252.625 88.042969 252.625 85.652344 C 252.625 83.679688 253.0625 80.46875 257.101562 80.46875 C 261.164062 80.46875 261.730469 83.175781 261.730469 85.652344 C 261.730469 88.042969 261.433594 91.128906 257.101562 91.128906 "></path>
    <path style=" stroke:none;fill-rule:nonzero;fill:rgb(35.294118%,34.117647%,34.509804%);fill-opacity:1;" d="M 272.238281 90.960938 L 270.730469 90.960938 C 270.460938 90.960938 270.332031 90.835938 270.332031 90.5625 L 270.355469 84.664062 C 270.355469 83.425781 270.0625 82.609375 268.847656 82.609375 C 268.007812 82.609375 266.542969 83.28125 265.980469 83.550781 L 265.980469 90.5625 C 265.980469 90.816406 265.875 90.960938 265.582031 90.960938 L 264.097656 90.960938 C 263.804688 90.960938 263.699219 90.835938 263.699219 90.5625 L 263.699219 81.097656 C 263.699219 80.824219 263.804688 80.675781 264.097656 80.675781 L 265.582031 80.675781 C 265.875 80.675781 265.980469 80.824219 265.980469 81.097656 L 265.980469 81.726562 C 266 81.726562 266.019531 81.746094 266.042969 81.746094 C 266.816406 81.203125 268.28125 80.488281 269.558594 80.488281 C 272.382812 80.488281 272.636719 82.355469 272.636719 84.476562 L 272.636719 90.5625 C 272.636719 90.816406 272.550781 90.960938 272.238281 90.960938 "></path>
    <path style=" stroke:none;fill-rule:nonzero;fill:rgb(14.509804%,29.019608%,64.705882%);fill-opacity:1;" d="M 285.851562 90.960938 L 285.851562 48.773438 L 282.261719 48.773438 L 282.261719 90.960938 L 285.851562 90.960938 "></path>
    <path style=" stroke:none;fill-rule:nonzero;fill:rgb(74.117647%,73.72549%,73.72549%);fill-opacity:1;" d="M 10.65625 45.421875 C 10.65625 45.421875 53.910156 39.765625 55.128906 39.566406 C 57 39.257812 58.664062 38.894531 60.214844 38.460938 C 63.714844 37.492188 66.933594 36.015625 69.785156 34.070312 C 72.519531 32.214844 75.0625 29.523438 77.582031 26.566406 C 79.183594 24.683594 80.867188 22.230469 82.4375 19.863281 L 82.4375 18.722656 C 80.574219 21.507812 78.738281 23.910156 76.851562 26.027344 C 74.351562 28.839844 71.726562 31.140625 69.054688 32.867188 C 66.292969 34.664062 63.1875 36.003906 59.820312 36.855469 C 58.3125 37.238281 56.695312 37.550781 54.878906 37.804688 C 53.683594 37.976562 52.449219 38.105469 51.253906 38.234375 C 50.777344 38.285156 10.65625 42.585938 10.65625 42.585938 L 10.65625 45.421875 "></path>
    <path style=" stroke:none;fill-rule:nonzero;fill:rgb(74.117647%,73.72549%,73.72549%);fill-opacity:1;" d="M 68.660156 38.09375 C 65.953125 39.667969 62.824219 40.816406 59.367188 41.515625 C 57.890625 41.816406 56.277344 42.0625 54.441406 42.265625 C 53.363281 42.382812 52.277344 42.476562 51.1875 42.570312 C 50.601562 42.625 50.015625 42.675781 49.429688 42.730469 C 36.175781 43.929688 22.988281 45.207031 10.65625 46.417969 L 10.65625 49.253906 C 23.085938 47.738281 36.363281 46.132812 49.613281 44.617188 C 50.203125 44.546875 50.792969 44.484375 51.382812 44.417969 C 52.46875 44.296875 53.554688 44.175781 54.644531 44.03125 C 56.53125 43.777344 58.179688 43.484375 59.6875 43.140625 C 63.28125 42.328125 66.527344 41.046875 69.332031 39.332031 C 72.121094 37.640625 74.585938 35.273438 77.234375 32.375 C 78.882812 30.574219 80.71875 28.03125 82.4375 25.640625 L 82.4375 24.601562 C 80.414062 27.375 78.496094 29.703125 76.59375 31.691406 C 74.007812 34.398438 71.339844 36.550781 68.660156 38.09375 "></path>
    <path style=" stroke:none;fill-rule:nonzero;fill:rgb(74.117647%,73.72549%,73.72549%);fill-opacity:1;" d="M 76.230469 37.398438 C 73.589844 39.84375 70.835938 41.769531 68.039062 43.117188 C 65.304688 44.449219 62.246094 45.382812 58.683594 45.976562 C 57.214844 46.222656 55.617188 46.421875 53.804688 46.589844 L 10.65625 50.171875 L 10.65625 53 L 49.011719 48.886719 L 53.972656 48.359375 C 55.839844 48.140625 57.472656 47.898438 58.957031 47.613281 C 62.644531 46.910156 65.808594 45.855469 68.625 44.398438 C 71.507812 42.925781 74.386719 40.476562 77.0625 37.882812 C 78.859375 36.144531 80.589844 33.898438 82.4375 31.542969 L 82.4375 30.601562 C 80.300781 33.28125 78.265625 35.515625 76.230469 37.398438 "></path>
    <path style=" stroke:none;fill-rule:nonzero;fill:rgb(74.117647%,73.72549%,73.72549%);fill-opacity:1;" d="M 65.796875 52.089844 C 63.285156 53.507812 61.40625 54.328125 57.816406 54.707031 C 55.648438 54.941406 53.421875 55.054688 51.265625 55.164062 C 50.222656 55.214844 49.179688 55.265625 48.136719 55.332031 C 41.617188 55.710938 35.214844 56.128906 28.6875 56.558594 L 10.65625 57.785156 L 10.65625 60.613281 L 28.867188 58.925781 C 34.75 58.390625 41.585938 57.777344 48.261719 57.226562 L 53.117188 56.847656 C 55.011719 56.699219 56.5625 56.542969 58.003906 56.355469 C 61.695312 55.871094 64.847656 55.117188 67.640625 54.050781 C 70.648438 52.914062 73.484375 51.148438 76.328125 49.074219 C 78.886719 47.207031 82.433594 43.515625 82.4375 43.46875 L 82.4375 42.46875 C 80.121094 44.753906 78.785156 46.035156 76.25 47.726562 C 73.214844 49.742188 68.046875 50.816406 65.796875 52.089844 "></path>
    <path style=" stroke:none;fill-rule:nonzero;fill:rgb(74.117647%,73.72549%,73.72549%);fill-opacity:1;" d="M 66.710938 57.464844 C 63.992188 58.273438 60.925781 58.816406 57.347656 59.132812 C 55.894531 59.261719 54.332031 59.359375 52.5625 59.429688 L 47.738281 59.644531 C 35.746094 60.207031 23.8125 60.835938 10.65625 61.539062 L 10.65625 64.363281 C 23.222656 63.378906 35.535156 62.421875 47.84375 61.539062 L 52.65625 61.207031 C 54.515625 61.082031 56.054688 60.949219 57.503906 60.785156 C 61.175781 60.367188 64.3125 59.730469 67.101562 58.828125 C 70.1875 57.839844 73.199219 56.40625 76.046875 54.566406 C 78.152344 53.214844 80.253906 51.601562 82.4375 49.675781 L 82.4375 49.628906 C 80.03125 51.703125 77.738281 52.164062 75.453125 53.554688 C 72.65625 55.269531 69.714844 56.582031 66.710938 57.464844 "></path>
    <path style=" stroke:none;fill-rule:nonzero;fill:rgb(74.117647%,73.72549%,73.72549%);fill-opacity:1;" d="M 66.269531 62.152344 C 63.527344 62.800781 60.554688 63.214844 56.917969 63.460938 C 55.511719 63.558594 54.003906 63.628906 52.167969 63.6875 L 47.386719 63.859375 C 35.34375 64.320312 23.132812 64.847656 10.65625 65.394531 L 10.65625 68.214844 C 23.054688 67.359375 35.214844 66.527344 47.480469 65.753906 L 52.25 65.464844 C 54.121094 65.355469 55.644531 65.246094 57.042969 65.117188 C 60.75 64.773438 63.78125 64.269531 66.585938 63.535156 C 69.730469 62.714844 72.789062 61.515625 75.675781 59.96875 C 77.90625 58.773438 80.132812 57.335938 82.4375 55.605469 L 82.4375 54.398438 C 79.945312 56.21875 77.554688 57.703125 75.160156 58.910156 C 72.328125 60.34375 69.335938 61.433594 66.269531 62.152344 "></path>
    <path style=" stroke:none;fill-rule:nonzero;fill:rgb(74.117647%,73.72549%,73.72549%);fill-opacity:1;" d="M 65.859375 66.75 C 63.109375 67.257812 60.144531 67.582031 56.535156 67.769531 C 55.175781 67.839844 53.722656 67.890625 51.820312 67.9375 L 10.65625 69.0625 L 10.65625 71.878906 L 47.160156 69.953125 L 51.886719 69.710938 C 53.734375 69.625 55.242188 69.535156 56.640625 69.425781 C 60.300781 69.140625 63.3125 68.734375 66.117188 68.144531 C 69.300781 67.476562 72.390625 66.5 75.300781 65.246094 C 77.644531 64.242188 79.992188 63.015625 82.4375 61.527344 L 82.4375 60.394531 C 79.824219 61.929688 77.339844 63.164062 74.875 64.148438 C 72.003906 65.300781 68.972656 66.175781 65.859375 66.75 "></path>
    <path style=" stroke:none;fill-rule:nonzero;fill:rgb(74.117647%,73.72549%,73.72549%);fill-opacity:1;" d="M 65.535156 71.363281 C 60.484375 72.042969 55.285156 72.121094 50.257812 72.199219 C 49.105469 72.214844 47.949219 72.234375 46.800781 72.257812 L 10.65625 72.914062 L 10.65625 75.726562 L 46.863281 74.152344 C 48.011719 74.097656 49.160156 74.054688 50.308594 74.007812 C 55.375 73.800781 60.613281 73.589844 65.730469 72.769531 C 68.972656 72.253906 72.089844 71.488281 75 70.5 C 77.410156 69.683594 79.90625 68.628906 82.4375 67.382812 L 82.4375 66.300781 C 79.777344 67.554688 77.164062 68.59375 74.65625 69.371094 C 71.777344 70.269531 68.710938 70.941406 65.535156 71.363281 "></path>
    <path style=" stroke:none;fill-rule:nonzero;fill:rgb(74.117647%,73.72549%,73.72549%);fill-opacity:1;" d="M 65.25 76.007812 C 60.515625 76.402344 55.671875 76.402344 50.988281 76.402344 C 49.53125 76.402344 48.074219 76.402344 46.617188 76.414062 C 34.644531 76.46875 22.765625 76.566406 10.65625 76.671875 L 10.65625 79.488281 C 22.1875 79.089844 34.421875 78.679688 46.65625 78.3125 C 48.109375 78.261719 49.5625 78.226562 51.015625 78.1875 C 55.726562 78.066406 60.597656 77.941406 65.378906 77.421875 C 68.71875 77.058594 71.757812 76.527344 74.667969 75.800781 C 77.210938 75.167969 79.816406 74.328125 82.4375 73.316406 L 82.4375 72.28125 C 79.734375 73.265625 77.039062 74.0625 74.414062 74.648438 C 71.53125 75.289062 68.53125 75.734375 65.25 76.007812 "></path>
    <path style=" stroke:none;fill-rule:nonzero;fill:rgb(74.117647%,73.72549%,73.72549%);fill-opacity:1;" d="M 65.066406 80.585938 C 63.09375 80.664062 60.960938 80.703125 58.539062 80.703125 C 57.621094 80.703125 56.707031 80.695312 55.792969 80.6875 L 46.480469 80.574219 C 40.121094 80.527344 33.789062 80.515625 27.847656 80.507812 L 10.65625 80.527344 L 10.65625 83.339844 L 27.890625 82.882812 C 33.808594 82.738281 40.160156 82.585938 46.496094 82.46875 L 55.804688 82.34375 C 58.359375 82.304688 61.726562 82.226562 65.140625 82 C 68.484375 81.78125 71.527344 81.445312 74.445312 80.976562 C 77.070312 80.550781 79.753906 79.980469 82.4375 79.289062 L 82.4375 78.289062 C 79.679688 78.933594 76.941406 79.445312 74.28125 79.804688 C 71.378906 80.199219 68.367188 80.453125 65.066406 80.585938 "></path>
    <path style=" stroke:none;fill-rule:nonzero;fill:rgb(74.117647%,73.72549%,73.72549%);fill-opacity:1;" d="M 55.6875 85.007812 L 46.402344 84.910156 C 34.558594 84.742188 22.726562 84.519531 10.65625 84.292969 L 10.65625 87.109375 C 22.175781 87.03125 34.378906 86.941406 46.410156 86.804688 L 55.699219 86.667969 C 58.828125 86.613281 61.894531 86.554688 64.996094 86.449219 C 71.375 86.242188 77.09375 85.789062 82.4375 85.074219 L 82.4375 84.097656 C 77.074219 84.679688 71.347656 84.988281 64.960938 85.03125 C 61.871094 85.058594 58.777344 85.035156 55.6875 85.007812 "></path>
    <path style=" stroke:none;fill-rule:nonzero;fill:rgb(74.117647%,73.72549%,73.72549%);fill-opacity:1;" d="M 82.4375 89.984375 L 10.65625 88.148438 L 10.65625 90.960938 L 82.4375 90.960938 L 82.4375 89.984375 "></path>
    <path style=" stroke:none;fill-rule:nonzero;fill:rgb(74.117647%,73.72549%,73.72549%);fill-opacity:1;" d="M 75.972656 42.714844 C 73.246094 44.929688 71.140625 46.5 67.804688 47.839844 C 64.898438 49.007812 61.777344 49.484375 58.207031 49.976562 C 55.914062 50.300781 53.515625 50.78125 51.222656 50.9375 C 50.28125 51 49.339844 51.0625 48.398438 51.136719 L 10.65625 53.917969 L 10.65625 56.742188 L 48.550781 53.027344 L 53.464844 52.5625 C 55.289062 52.390625 56.90625 52.1875 58.410156 51.941406 C 62.082031 51.34375 65.246094 50.433594 68.082031 49.160156 C 71.027344 47.847656 74.003906 45.699219 76.773438 43.347656 C 78.65625 41.75 80.464844 39.738281 82.4375 37.542969 L 82.4375 36.53125 C 80.050781 39.023438 78.078125 41.011719 75.972656 42.714844 "></path>
    <path style=" stroke:none;fill-rule:nonzero;fill:rgb(74.117647%,73.72549%,73.72549%);fill-opacity:1;" d="M 112.984375 18.722656 C 112.984375 18.722656 125.902344 39.355469 128.265625 43.136719 C 130.628906 46.921875 133.328125 49.914062 142.886719 51.945312 C 152.441406 53.976562 156.605469 54.9375 156.605469 54.9375 L 156.605469 55.671875 C 156.605469 55.671875 150.53125 54.371094 142.714844 52.621094 C 134.902344 50.871094 131.707031 50.285156 128.144531 45.3125 C 125.179688 41.175781 112.984375 23.597656 112.984375 23.597656 L 112.984375 18.722656 "></path>
    <path style=" stroke:none;fill-rule:nonzero;fill:rgb(74.117647%,73.72549%,73.72549%);fill-opacity:1;" d="M 112.984375 42.285156 C 112.984375 42.285156 124.746094 54.640625 128.144531 58.1875 C 131.75 61.953125 136.371094 63.34375 142.777344 64.492188 C 148.890625 65.585938 156.601562 66.851562 156.601562 66.851562 L 156.601562 67.546875 C 156.601562 67.546875 149.359375 66.355469 142.777344 65.226562 C 136.320312 64.117188 131.804688 63.5 128.105469 60.082031 C 124.792969 57.023438 112.984375 45.917969 112.984375 45.917969 L 112.984375 42.285156 "></path>
    <path style=" stroke:none;fill-rule:nonzero;fill:rgb(74.117647%,73.72549%,73.72549%);fill-opacity:1;" d="M 112.984375 47.851562 C 112.984375 47.851562 124.167969 58.265625 128.144531 61.824219 C 131.804688 65.097656 134.769531 66.117188 142.816406 67.546875 C 150.863281 68.976562 156.601562 69.867188 156.601562 69.867188 L 156.601562 70.601562 C 156.601562 70.601562 149.324219 69.402344 142.777344 68.359375 C 136.230469 67.3125 132.058594 66.902344 128.144531 63.71875 C 123.625 60.042969 112.984375 51.253906 112.984375 51.253906 L 112.984375 47.851562 "></path>
    <path style=" stroke:none;fill-rule:nonzero;fill:rgb(74.117647%,73.72549%,73.72549%);fill-opacity:1;" d="M 112.984375 53.789062 C 112.984375 53.789062 125.761719 63.949219 128.148438 65.730469 C 130.535156 67.507812 133.691406 69.582031 142.855469 70.910156 C 151.945312 72.226562 156.605469 72.882812 156.605469 72.882812 L 156.605469 73.65625 C 156.605469 73.65625 148.363281 72.457031 142.855469 71.761719 C 137.351562 71.066406 133.128906 70.769531 128.1875 67.46875 C 123.375 64.257812 112.984375 56.921875 112.984375 56.921875 L 112.984375 53.789062 "></path>
    <path style=" stroke:none;fill-rule:nonzero;fill:rgb(74.117647%,73.72549%,73.72549%);fill-opacity:1;" d="M 112.984375 59.492188 C 112.984375 59.492188 125.796875 68.050781 128.226562 69.402344 C 130.652344 70.753906 133.5 72.960938 142.855469 74.160156 C 152.214844 75.355469 156.605469 75.898438 156.605469 75.898438 L 156.605469 76.632812 C 156.605469 76.632812 148.863281 75.78125 142.820312 75.125 C 136.773438 74.46875 132.652344 73.578125 128.148438 71.105469 C 123.640625 68.628906 112.984375 62.386719 112.984375 62.386719 L 112.984375 59.492188 "></path>
    <path style=" stroke:none;fill-rule:nonzero;fill:rgb(74.117647%,73.72549%,73.72549%);fill-opacity:1;" d="M 112.984375 65.199219 C 112.984375 65.199219 124.3125 71.378906 128.144531 73.308594 C 132.417969 75.460938 136.117188 76.488281 142.816406 77.289062 C 149.394531 78.074219 156.601562 78.835938 156.601562 78.835938 L 156.601562 79.53125 C 156.601562 79.53125 149.9375 78.816406 142.816406 78.140625 C 135.753906 77.46875 133.242188 77.160156 128.144531 74.894531 C 123.585938 72.863281 112.984375 67.90625 112.984375 67.90625 L 112.984375 65.199219 "></path>
    <path style=" stroke:none;fill-rule:nonzero;fill:rgb(74.117647%,73.72549%,73.72549%);fill-opacity:1;" d="M 112.984375 70.984375 C 112.984375 70.984375 121.933594 74.824219 128.226562 77.328125 C 134.410156 79.789062 139.136719 79.996094 142.894531 80.421875 C 144.550781 80.609375 156.605469 81.851562 156.605469 81.851562 L 156.605469 82.546875 C 156.605469 82.546875 149.402344 81.96875 142.855469 81.386719 C 136.308594 80.808594 133.488281 80.5625 128.1875 78.796875 C 122.820312 77.011719 112.984375 73.574219 112.984375 73.574219 L 112.984375 70.984375 "></path>
    <path style=" stroke:none;fill-rule:nonzero;fill:rgb(74.117647%,73.72549%,73.72549%);fill-opacity:1;" d="M 112.984375 76.878906 C 112.984375 76.878906 122.019531 79.6875 128.183594 81.3125 C 134.34375 82.933594 140.003906 83.59375 142.855469 83.785156 C 145.703125 83.980469 156.605469 84.867188 156.605469 84.867188 L 156.605469 85.523438 C 156.605469 85.523438 150.402344 85.101562 142.816406 84.558594 C 136.679688 84.121094 131.75 83.65625 128.144531 82.855469 C 124.144531 81.972656 112.984375 79.3125 112.984375 79.3125 L 112.984375 76.878906 "></path>
    <path style=" stroke:none;fill-rule:nonzero;fill:rgb(74.117647%,73.72549%,73.72549%);fill-opacity:1;" d="M 112.984375 82.679688 C 112.984375 82.679688 120.375 83.957031 128.183594 85.253906 C 134.035156 86.226562 141.96875 86.839844 142.816406 86.878906 C 143.664062 86.917969 156.601562 87.808594 156.601562 87.808594 L 156.601562 88.503906 C 156.601562 88.503906 148.320312 88.074219 142.816406 87.769531 C 137.082031 87.449219 131.382812 87.101562 128.144531 86.761719 C 120.890625 86.003906 112.984375 85 112.984375 85 L 112.984375 82.679688 "></path>
    <path style=" stroke:none;fill-rule:nonzero;fill:rgb(74.117647%,73.72549%,73.72549%);fill-opacity:1;" d="M 112.984375 88.683594 C 112.984375 88.683594 124.640625 89.121094 128.183594 89.199219 C 131.726562 89.277344 156.601562 90.28125 156.601562 90.28125 L 156.601562 90.960938 L 112.984375 90.960938 L 112.984375 88.683594 "></path>
    <path style=" stroke:none;fill-rule:nonzero;fill:rgb(74.117647%,73.72549%,73.72549%);fill-opacity:1;" d="M 142.816406 55.136719 C 132.265625 52.855469 129.878906 48.988281 128.105469 46.589844 C 126.332031 44.191406 112.984375 24.628906 112.984375 24.628906 L 112.984375 29.042969 C 113.511719 29.734375 124.9375 44.730469 128.144531 48.871094 C 131.757812 53.535156 137.425781 54.59375 142.816406 55.753906 C 148.207031 56.914062 156.605469 58.53125 156.605469 58.53125 L 156.605469 57.910156 C 156.605469 57.910156 145.539062 55.722656 142.816406 55.136719 "></path>
    <path style=" stroke:none;fill-rule:nonzero;fill:rgb(74.117647%,73.72549%,73.72549%);fill-opacity:1;" d="M 142.816406 58.226562 C 134.152344 56.527344 130.648438 53.78125 128.105469 50.457031 C 125.5625 47.128906 112.984375 30.503906 112.984375 30.503906 L 112.984375 34.683594 C 113.511719 35.3125 125.019531 49 128.105469 52.542969 C 131.707031 56.679688 136.730469 57.765625 142.816406 58.886719 C 148.898438 60.007812 156.601562 61.476562 156.601562 61.476562 L 156.601562 60.855469 C 156.601562 60.855469 147.8125 59.210938 142.816406 58.226562 "></path>
    <path style=" stroke:none;fill-rule:nonzero;fill:rgb(74.117647%,73.72549%,73.72549%);fill-opacity:1;" d="M 142.816406 61.4375 C 133.804688 59.683594 131.957031 58.242188 128.144531 54.050781 C 125.746094 51.417969 113.5 36.917969 112.984375 36.308594 L 112.984375 40.171875 C 112.984375 40.171875 124.425781 52.410156 128.105469 56.023438 C 132.933594 60.765625 137.464844 61.128906 142.816406 62.09375 C 148.167969 63.0625 156.601562 64.609375 156.601562 64.609375 L 156.601562 63.949219 C 156.601562 63.949219 146.417969 62.136719 142.816406 61.4375 "></path>
    <path style=" stroke:none;fill-rule:nonzero;fill:rgb(14.509804%,29.019608%,64.705882%);fill-opacity:1;" d="M 103.378906 90.960938 L 103.378906 48.773438 L 40.492188 48.773438 L 40.492188 90.960938 L 103.378906 90.960938 "></path>
    <path style=" stroke:none;fill-rule:nonzero;fill:rgb(100%,94.901961%,0%);fill-opacity:1;" d="M 72.617188 54.773438 L 74.804688 54.773438 L 73.042969 56.148438 L 73.726562 58.335938 L 71.96875 56.988281 L 70.214844 58.335938 L 70.90625 56.148438 L 69.128906 54.773438 L 71.308594 54.773438 L 71.96875 52.640625 L 72.617188 54.773438 "></path>
    <path style=" stroke:none;fill-rule:nonzero;fill:rgb(100%,94.901961%,0%);fill-opacity:1;" d="M 72.695312 82.90625 L 74.886719 82.90625 L 73.121094 84.234375 L 73.808594 86.332031 L 72.050781 85.039062 L 70.292969 86.332031 L 70.984375 84.234375 L 69.203125 82.90625 L 71.390625 82.90625 L 72.050781 80.851562 L 72.695312 82.90625 "></path>
    <path style=" stroke:none;fill-rule:nonzero;fill:rgb(100%,94.901961%,0%);fill-opacity:1;" d="M 79.632812 81.042969 L 81.824219 81.042969 L 80.0625 82.367188 L 80.746094 84.46875 L 78.992188 83.171875 L 77.234375 84.46875 L 77.925781 82.367188 L 76.144531 81.042969 L 78.328125 81.042969 L 78.992188 78.988281 L 79.632812 81.042969 "></path>
    <path style=" stroke:none;fill-rule:nonzero;fill:rgb(100%,94.901961%,0%);fill-opacity:1;" d="M 79.632812 56.648438 L 81.824219 56.648438 L 80.0625 57.972656 L 80.746094 60.078125 L 78.992188 58.78125 L 77.234375 60.078125 L 77.925781 57.972656 L 76.144531 56.648438 L 78.328125 56.648438 L 78.992188 54.597656 L 79.632812 56.648438 "></path>
    <path style=" stroke:none;fill-rule:nonzero;fill:rgb(100%,94.901961%,0%);fill-opacity:1;" d="M 84.785156 61.816406 L 86.972656 61.816406 L 85.210938 63.136719 L 85.894531 65.242188 L 84.140625 63.949219 L 82.386719 65.242188 L 83.078125 63.136719 L 81.296875 61.816406 L 83.476562 61.816406 L 84.140625 59.761719 L 84.785156 61.816406 "></path>
    <path style=" stroke:none;fill-rule:nonzero;fill:rgb(100%,94.901961%,0%);fill-opacity:1;" d="M 84.785156 75.945312 L 86.972656 75.945312 L 85.210938 77.273438 L 85.894531 79.378906 L 84.140625 78.078125 L 82.386719 79.378906 L 83.078125 77.273438 L 81.296875 75.945312 L 83.476562 75.945312 L 84.140625 73.894531 L 84.785156 75.945312 "></path>
    <path style=" stroke:none;fill-rule:nonzero;fill:rgb(100%,94.901961%,0%);fill-opacity:1;" d="M 86.71875 68.773438 L 88.910156 68.773438 L 87.144531 70.097656 L 87.828125 72.203125 L 86.074219 70.902344 L 84.316406 72.203125 L 85.007812 70.097656 L 83.226562 68.773438 L 85.410156 68.773438 L 86.074219 66.722656 L 86.71875 68.773438 "></path>
    <path style=" stroke:none;fill-rule:nonzero;fill:rgb(100%,94.901961%,0%);fill-opacity:1;" d="M 65.542969 56.664062 L 67.730469 56.664062 L 65.964844 57.992188 L 66.652344 60.097656 L 64.894531 58.800781 L 63.136719 60.097656 L 63.832031 57.992188 L 62.054688 56.664062 L 64.234375 56.664062 L 64.894531 54.613281 L 65.542969 56.664062 "></path>
    <path style=" stroke:none;fill-rule:nonzero;fill:rgb(100%,94.901961%,0%);fill-opacity:1;" d="M 60.53125 61.832031 L 62.722656 61.832031 L 60.960938 63.15625 L 61.640625 65.261719 L 59.890625 63.964844 L 58.132812 65.261719 L 58.824219 63.15625 L 57.042969 61.832031 L 59.226562 61.832031 L 59.890625 59.78125 L 60.53125 61.832031 "></path>
    <path style=" stroke:none;fill-rule:nonzero;fill:rgb(100%,94.901961%,0%);fill-opacity:1;" d="M 58.671875 68.789062 L 60.863281 68.789062 L 59.097656 70.117188 L 59.785156 72.21875 L 58.027344 70.925781 L 56.269531 72.21875 L 56.964844 70.117188 L 55.1875 68.789062 L 57.367188 68.789062 L 58.027344 66.742188 L 58.671875 68.789062 "></path>
    <path style=" stroke:none;fill-rule:nonzero;fill:rgb(100%,94.901961%,0%);fill-opacity:1;" d="M 60.53125 75.960938 L 62.722656 75.960938 L 60.960938 77.292969 L 61.640625 79.394531 L 59.890625 78.097656 L 58.132812 79.394531 L 58.824219 77.292969 L 57.042969 75.960938 L 59.226562 75.960938 L 59.890625 73.914062 L 60.53125 75.960938 "></path>
    <path style=" stroke:none;fill-rule:nonzero;fill:rgb(100%,94.901961%,0%);fill-opacity:1;" d="M 65.613281 81.058594 L 67.804688 81.058594 L 66.039062 82.386719 L 66.722656 84.488281 L 64.96875 83.191406 L 63.210938 84.488281 L 63.902344 82.386719 L 62.125 81.058594 L 64.308594 81.058594 L 64.96875 79.007812 L 65.613281 81.058594 "></path>
  </g>
</svg>
