<?xml version="1.0" encoding="UTF-8"?>
<svg xmlns="http://www.w3.org/2000/svg" width="22" height="20" viewBox="0 0 22 20" fill="none">
  <path d="M10.8573 0C5.24829 0 0.700684 4.54761 0.700684 10.1566C0.700684 14.9158 3.97787 18.898 8.39599 20C8.34859 19.8629 8.31812 19.7038 8.31812 19.5066V17.7706C7.90593 17.7706 7.21528 17.7706 7.04178 17.7706C6.3469 17.7706 5.72904 17.4719 5.42942 16.9166C5.09679 16.2996 5.03924 15.3559 4.21486 14.7787C3.97026 14.5865 4.15646 14.3673 4.43831 14.397C4.95883 14.5442 5.39048 14.9014 5.79675 15.4312C6.20132 15.9619 6.39175 16.0821 7.14757 16.0821C7.51406 16.0821 8.06251 16.0609 8.5788 15.9797C8.85642 15.2747 9.33632 14.6255 9.92286 14.3191C6.54072 13.9712 4.92667 12.2886 4.92667 10.0042C4.92667 9.02074 5.34563 8.0694 6.05743 7.26788C5.82383 6.47228 5.53014 4.84977 6.14715 4.23191C7.66894 4.23191 8.58896 5.21879 8.80987 5.4854C9.56822 5.22556 10.4011 5.07829 11.2762 5.07829C12.1531 5.07829 12.9893 5.22556 13.7494 5.48709C13.9677 5.22218 14.8886 4.23191 16.4138 4.23191C17.0333 4.85061 16.7362 6.4799 16.5001 7.2738C17.2077 8.07364 17.6241 9.02243 17.6241 10.0042C17.6241 12.2869 16.0126 13.9687 12.6355 14.3182C13.5648 14.8032 14.2428 16.1659 14.2428 17.1926V19.5066C14.2428 19.5946 14.2233 19.6581 14.2132 19.7334C18.1708 18.3462 21.0138 14.5882 21.0138 10.1566C21.0138 4.54761 16.4662 0 10.8573 0Z" fill="#AAB8C2"></path>
</svg>
