<?xml version="1.0" encoding="UTF-8"?>
<svg xmlns="http://www.w3.org/2000/svg" width="204" height="40" viewBox="0 0 204 40" fill="none">
  <path d="M18.1172 9.65621C18.2928 10.1774 18.6599 10.6028 19.1495 10.8474C19.442 10.991 19.7559 11.0654 20.0699 11.0654C20.288 11.0654 20.5114 11.0282 20.7243 10.9591L30.4131 7.7311C31.4932 7.37478 32.0732 6.20489 31.7166 5.12536C31.3601 4.04583 30.1843 3.46618 29.1093 3.82249L19.4207 7.05043C18.346 7.40675 17.7607 8.57666 18.1172 9.65621Z" fill="#231F20"></path>
  <path d="M20.56 31.5332C20.8048 31.0388 20.8473 30.4855 20.6717 29.9589C20.3152 28.885 19.1447 28.2998 18.0646 28.6563L8.37593 31.884C7.85446 32.0597 7.42882 32.4267 7.18414 32.9159C6.93933 33.4052 6.89683 33.9636 7.07239 34.4898C7.35968 35.3513 8.1631 35.8992 9.02503 35.8992C9.24312 35.8992 9.46131 35.8674 9.67412 35.793L19.3628 32.5649C19.8842 32.3894 20.3098 32.0224 20.5546 31.5332H20.56Z" fill="#231F20"></path>
  <path d="M11.3068 13.5324C11.5994 13.6813 11.9133 13.7504 12.2219 13.7504C12.9774 13.7504 13.7063 13.3356 14.0682 12.6124L18.6332 3.48157C18.8779 2.99233 18.9205 2.43396 18.7449 1.90748C18.5693 1.38633 18.2021 0.960895 17.7128 0.716273C16.6965 0.211075 15.4568 0.620552 14.9513 1.63627L10.3863 10.7671C9.88084 11.7828 10.2905 13.0219 11.3068 13.527V13.5324Z" fill="#231F20"></path>
  <path d="M27.4748 26.0817C26.9853 25.8371 26.4214 25.7945 25.9 25.9701C25.3786 26.1454 24.9528 26.5124 24.7082 27.0017L20.1431 36.1324C19.8984 36.6217 19.8558 37.1801 20.0313 37.7067C20.2069 38.2332 20.574 38.653 21.0635 38.8979C21.3561 39.0414 21.6648 39.1157 21.9839 39.1157C22.2021 39.1157 22.4257 39.0785 22.6384 39.0095C23.1598 38.8338 23.5854 38.467 23.8302 37.9776L28.3952 28.847C28.64 28.3577 28.6825 27.7993 28.5069 27.2729C28.3313 26.7518 27.9642 26.3264 27.4748 26.0817Z" fill="#231F20"></path>
  <path d="M6.62947 19.7811C6.91678 20.6425 7.7202 21.1904 8.58746 21.1904C8.80029 21.1904 9.02375 21.1584 9.23656 21.084C10.3113 20.7278 10.8966 19.5578 10.5401 18.4782L7.31048 8.79439C6.95398 7.72019 5.7835 7.12987 4.70344 7.4915C3.62867 7.84782 3.04343 9.01773 3.39991 10.0973L6.62947 19.7811Z" fill="#231F20"></path>
  <path d="M32.1526 19.8341C31.7962 18.7545 30.6254 18.1749 29.5453 18.5312C29.0239 18.7067 28.5983 19.0737 28.3535 19.563C28.1088 20.0523 28.0662 20.6105 28.2418 21.137L31.4714 30.8208C31.7589 31.6825 32.5623 32.2302 33.4239 32.2302C33.6424 32.2302 33.8604 32.1982 34.0733 32.1236C35.1479 31.7674 35.7334 30.5975 35.3767 29.518L32.1472 19.8341H32.1526Z" fill="#231F20"></path>
  <path d="M11.2689 29.0286C11.487 29.0286 11.7104 28.9914 11.9232 28.9221C12.4447 28.7467 12.8703 28.3798 13.1151 27.8905C13.3598 27.4014 13.4024 26.843 13.2268 26.3164C13.0513 25.7953 12.6841 25.3699 12.1946 25.1252L3.05925 20.5625C2.04302 20.0573 0.803335 20.4667 0.297886 21.4824C0.0531412 21.9769 0.0105768 22.5301 0.186155 23.0566C0.361733 23.5778 0.728849 24.0032 1.21834 24.2478L10.3537 28.8104C10.6463 28.9543 10.9603 29.0286 11.2741 29.0286H11.2689Z" fill="#231F20"></path>
  <path d="M38.6007 16.5642C38.4253 16.0431 38.0583 15.6176 37.5686 15.373L28.4333 10.8102C27.4171 10.3051 26.1774 10.7146 25.6719 11.7303C25.4271 12.2248 25.3846 12.7779 25.5602 13.3044C25.7356 13.8255 26.1028 14.251 26.5923 14.4956L35.7275 19.0583C36.0204 19.2072 36.3343 19.2763 36.6428 19.2763C37.3985 19.2763 38.1273 18.8616 38.4889 18.1383C38.7338 17.6491 38.7763 17.0907 38.6007 16.5642Z" fill="#231F20"></path>
  <path d="M66.3638 35.6974H56.7392L56.2817 35.24V4.08259L56.7392 3.62524H66.3638C77.8244 3.62524 81.4958 10.0386 81.4958 19.664C81.4958 29.2892 77.8296 35.7027 66.3638 35.7027V35.6974ZM65.9064 7.74659H61.32L60.8627 8.20394V31.1135L61.32 31.5707H65.9064C74.6167 31.5707 76.9092 27.4493 76.9092 19.6586C76.9092 11.8679 74.6167 7.74659 65.9064 7.74659Z" fill="#231F20"></path>
  <path d="M95.7059 12.3303C102.58 12.3303 106.709 16.9144 106.709 24.2424C106.709 31.5704 102.58 36.1544 95.7059 36.1544C88.8312 36.1544 84.7031 31.5704 84.7031 24.2424C84.7031 16.9144 88.8266 12.3303 95.7059 12.3303ZM95.7059 32.0331C99.8294 32.0331 102.122 29.2836 102.122 24.2424C102.122 19.2011 99.8294 16.4517 95.7059 16.4517C91.5824 16.4517 89.289 19.2011 89.289 24.2424C89.289 29.2836 91.5824 32.0331 95.7059 32.0331Z" fill="#231F20"></path>
  <path d="M142.469 35.6973H138.803L138.346 35.2399V21.4931C138.346 18.7438 137.888 16.4517 134.222 16.4517C131.014 16.4517 129.178 18.7438 129.178 22.4078V35.2399L128.721 35.6973H125.055L124.597 35.2399V21.4931C124.597 18.7438 124.14 16.4517 120.474 16.4517C118.18 16.4517 115.43 17.8237 115.43 22.4078V35.2399L114.972 35.6973H111.306L110.849 35.2399V13.245L111.306 12.7877H114.515L114.972 13.245L115.43 15.0797H115.887C116.802 13.7077 118.638 12.3303 121.846 12.3303C125.512 12.3303 126.891 14.165 127.806 15.5371H128.263C129.636 13.7024 131.929 12.3303 135.137 12.3303C141.554 12.3303 142.932 16.457 142.932 21.4931V35.2399L142.474 35.6973H142.469Z" fill="#231F20"></path>
  <path d="M152.094 9.12458H148.428L147.97 8.66723V5.00324L148.428 4.5459H152.094L152.552 5.00324V8.66723L152.094 9.12458ZM152.094 35.7033H148.428L147.97 35.2462V13.2459L148.428 12.7887H152.094L152.552 13.2459V35.2408L152.094 35.6979V35.7033Z" fill="#231F20"></path>
  <path d="M177.308 35.6973H173.642L173.184 35.2399V21.9504C173.184 19.6158 172.726 16.4517 168.598 16.4517C164.469 16.4517 162.638 18.6959 162.638 24.2424V35.2399L162.181 35.6973H158.515L158.058 35.2399V13.245L158.515 12.7877H161.723L162.181 13.245L162.638 15.0797H163.096C164.426 13.3408 166.623 12.3303 169.055 12.3303C175.47 12.3303 177.764 16.457 177.764 21.9556V35.2453L177.308 35.7024V35.6973Z" fill="#231F20"></path>
  <path d="M192.439 12.3303C199.314 12.3303 203.442 16.9144 203.442 24.2424C203.442 31.5704 199.314 36.1544 192.439 36.1544C185.566 36.1544 181.437 31.5704 181.437 24.2424C181.437 16.9144 185.561 12.3303 192.439 12.3303ZM192.439 32.0331C196.563 32.0331 198.855 29.2836 198.855 24.2424C198.855 19.2011 196.563 16.4517 192.439 16.4517C188.315 16.4517 186.024 19.2011 186.024 24.2424C186.024 29.2836 188.315 32.0331 192.439 32.0331Z" fill="#231F20"></path>
</svg>
