<?xml version="1.0" encoding="UTF-8"?>
<svg xmlns="http://www.w3.org/2000/svg" width="19" height="18" viewBox="0 0 19 18" fill="none">
  <path fill-rule="evenodd" clip-rule="evenodd" d="M0.013916 5.28136C0.013916 2.36441 2.37813 0 5.29446 0H12.7326C15.6495 0 18.0139 2.36422 18.0139 5.28055V12.7186C18.0139 15.6356 15.6497 18 12.7334 18H5.29528C2.37833 18 0.013916 15.6358 0.013916 12.7195V5.28136ZM5.29446 1.63636C3.28206 1.63636 1.65028 3.26795 1.65028 5.28136V12.7195C1.65028 14.7319 3.28187 16.3636 5.29528 16.3636H12.7334C14.7458 16.3636 16.3776 14.732 16.3776 12.7186V5.28055C16.3776 3.26815 14.746 1.63636 12.7326 1.63636H5.29446ZM5.5426 5.52892C6.46323 4.60828 7.71188 4.09108 9.01385 4.09108C10.3158 4.09108 11.5645 4.60828 12.4851 5.52892C13.4057 6.44955 13.9229 7.6982 13.9229 9.00017C13.9229 10.3021 13.4057 11.5508 12.4851 12.4714C11.5645 13.3921 10.3158 13.9093 9.01385 13.9093C7.71188 13.9093 6.46323 13.3921 5.5426 12.4714C4.62197 11.5508 4.10476 10.3021 4.10476 9.00017C4.10476 7.6982 4.62197 6.44955 5.5426 5.52892ZM9.01385 5.72744C8.14587 5.72744 7.31344 6.07225 6.69969 6.686C6.08593 7.29976 5.74113 8.13219 5.74113 9.00017C5.74113 9.86815 6.08593 10.7006 6.69969 11.3143C7.31344 11.9281 8.14587 12.2729 9.01385 12.2729C9.88183 12.2729 10.7143 11.9281 11.328 11.3143C11.9418 10.7006 12.2866 9.86815 12.2866 9.00017C12.2866 8.13219 11.9418 7.29976 11.328 6.686C10.7143 6.07225 9.88183 5.72744 9.01385 5.72744ZM13.3226 3.63955C13.4621 3.50008 13.6512 3.42172 13.8485 3.42172C14.0457 3.42172 14.2349 3.50008 14.3744 3.63955C14.5139 3.77903 14.5922 3.9682 14.5922 4.16545C14.5922 4.3627 14.5139 4.55187 14.3744 4.69134C14.2349 4.83082 14.0457 4.90917 13.8485 4.90917C13.6512 4.90917 13.4621 4.83082 13.3226 4.69134C13.1831 4.55187 13.1048 4.3627 13.1048 4.16545C13.1048 3.9682 13.1831 3.77903 13.3226 3.63955Z" fill="#AAB8C2"></path>
</svg>
