<?xml version="1.0" encoding="UTF-8"?>
<svg xmlns="http://www.w3.org/2000/svg" width="22" height="20" viewBox="0 0 22 20" fill="none">
  <path d="M5.33696 20H0.791504V6.36364H5.33696V20ZM3.06514 4.54545C1.80787 4.54545 0.791504 3.52636 0.791504 2.27182C0.791504 1.01727 1.80969 0 3.06514 0C4.31787 0 5.33696 1.01909 5.33696 2.27182C5.33696 3.52636 4.31787 4.54545 3.06514 4.54545ZM21.7006 20H17.3306V13.3636C17.3306 11.7809 17.3006 9.74545 15.0588 9.74545C12.7833 9.74545 12.4333 11.4691 12.4333 13.2491V20H8.06423V6.35364H12.2588V8.21818H12.3179C12.9015 7.14545 14.3279 6.01455 16.4551 6.01455C20.8824 6.01455 21.7006 8.84091 21.7006 12.5155V20Z" fill="#AAB8C2"></path>
</svg>
