<?xml version="1.0" encoding="UTF-8"?>
<svg xmlns="http://www.w3.org/2000/svg" width="54" height="54" viewBox="0 0 54 54" fill="none">
  <path d="M53.25 9.17187C53.25 9.18555 53.25 9.19922 53.25 9.21289C53.1816 13.8477 41.4512 17.5937 27 17.5937C12.5488 17.5937 0.818359 13.8477 0.75 9.21289C0.75 9.19922 0.75 9.18555 0.75 9.17187C0.75 4.52344 12.5078 0.75 27 0.75C41.4922 0.75 53.25 4.52344 53.25 9.17187ZM53.25 15.5156C53.25 15.5156 53.25 15.543 53.25 15.5566C53.1816 20.1914 41.4512 23.9375 27 23.9375C12.5488 23.9375 0.818359 20.1914 0.75 15.5566V15.5156L0.886719 27.3828C0.886719 27.3828 0.886719 27.4375 0.886719 27.4512C0.955078 32.0586 12.6172 35.791 27 35.791C41.3828 35.791 53.0449 32.0586 53.1133 27.4512C53.1133 27.4375 53.1133 27.3828 53.1133 27.3828L53.25 15.5156ZM53.25 33.0156C53.25 33.0156 53.25 33.043 53.25 33.0566C53.1816 37.6914 41.4512 41.4375 27 41.4375C12.5488 41.4375 0.818359 37.6914 0.75 33.0566V33.0156L0.886719 44.8828C0.886719 44.8828 0.886719 44.9375 0.886719 44.9512C0.955078 49.5586 12.6172 53.291 27 53.291C41.3828 53.291 53.0449 49.5586 53.1133 44.9512C53.1133 44.9375 53.1133 44.8828 53.1133 44.8828L53.25 33.0156Z" fill="#2C303A"></path>
</svg>
