<?xml version="1.0" encoding="UTF-8"?>
<svg xmlns="http://www.w3.org/2000/svg" width="25" height="18" viewBox="0 0 25 18" fill="none">
  <path d="M23.5827 3.09375C23.3577 1.85625 22.2889 0.95625 21.0514 0.675C19.1952 0.28125 15.7639 0 12.0514 0C8.33892 0 4.85142 0.28125 2.99517 0.675C1.75767 0.95625 0.688916 1.8 0.463916 3.09375C0.238916 4.5 0.013916 6.46875 0.013916 9C0.013916 11.5312 0.238916 13.5 0.520166 14.9062C0.745166 16.1437 1.81392 17.0437 3.05142 17.325C5.02017 17.7188 8.39517 18 12.1077 18C15.8202 18 19.1952 17.7188 21.1639 17.325C22.4014 17.0437 23.4702 16.2 23.6952 14.9062C23.9202 13.5 24.2014 11.475 24.2577 9C24.1452 6.46875 23.8639 4.5 23.5827 3.09375ZM9.01392 12.9375V5.0625L15.8764 9L9.01392 12.9375Z" fill="#AAB8C2"></path>
</svg>
